<svg xmlns="http://www.w3.org/2000/svg" xmlns:xlink="http://www.w3.org/1999/xlink" width="137" height="156" viewBox="0 0 137 156"><defs><style>.a{fill:none;}.b{opacity:0.8;clip-path:url(#a);}.c{fill:pink;}</style><clipPath id="a"><rect class="a" width="137" height="156"/></clipPath></defs><g class="b"><g transform="translate(-13717 -920)"><rect class="c" width="11" height="11" transform="translate(13717 920)"/></g><g transform="translate(-13697 -920)"><rect class="c" width="11" height="11" transform="translate(13717 920)"/></g><g transform="translate(-13677 -920)"><rect class="c" width="11" height="11" transform="translate(13717 920)"/></g><g transform="translate(-13657 -920)"><rect class="c" width="11" height="11" transform="translate(13717 920)"/></g><g transform="translate(-13637 -920)"><rect class="c" width="11" height="11" transform="translate(13717 920)"/></g><g transform="translate(-13617 -920)"><rect class="c" width="11" height="11" transform="translate(13717 920)"/></g><g transform="translate(-13597 -920)"><rect class="c" width="11" height="11" transform="translate(13717 920)"/></g><g transform="translate(-13717 -900)"><rect class="c" width="11" height="11" transform="translate(13717 920)"/></g><g transform="translate(-13697 -900)"><rect class="c" width="11" height="11" transform="translate(13717 920)"/></g><g transform="translate(-13677 -900)"><rect class="c" width="11" height="11" transform="translate(13717 920)"/></g><g transform="translate(-13657 -900)"><rect class="c" width="11" height="11" transform="translate(13717 920)"/></g><g transform="translate(-13637 -900)"><rect class="c" width="11" height="11" transform="translate(13717 920)"/></g><g transform="translate(-13617 -900)"><rect class="c" width="11" height="11" transform="translate(13717 920)"/></g><g transform="translate(-13597 -900)"><rect class="c" width="11" height="11" transform="translate(13717 920)"/></g><g transform="translate(-13717 -880)"><rect class="c" width="11" height="11" transform="translate(13717 920)"/></g><g transform="translate(-13697 -880)"><rect class="c" width="11" height="11" transform="translate(13717 920)"/></g><g transform="translate(-13677 -880)"><rect class="c" width="11" height="11" transform="translate(13717 920)"/></g><g transform="translate(-13657 -880)"><rect class="c" width="11" height="11" transform="translate(13717 920)"/></g><g transform="translate(-13637 -880)"><rect class="c" width="11" height="11" transform="translate(13717 920)"/></g><g transform="translate(-13617 -880)"><rect class="c" width="11" height="11" transform="translate(13717 920)"/></g><g transform="translate(-13597 -880)"><rect class="c" width="11" height="11" transform="translate(13717 920)"/></g><g transform="translate(-13717 -860)"><rect class="c" width="11" height="11" transform="translate(13717 920)"/></g><g transform="translate(-13697 -860)"><rect class="c" width="11" height="11" transform="translate(13717 920)"/></g><g transform="translate(-13677 -860)"><rect class="c" width="11" height="11" transform="translate(13717 920)"/></g><g transform="translate(-13657 -860)"><rect class="c" width="11" height="11" transform="translate(13717 920)"/></g><g transform="translate(-13637 -860)"><rect class="c" width="11" height="11" transform="translate(13717 920)"/></g><g transform="translate(-13617 -860)"><rect class="c" width="11" height="11" transform="translate(13717 920)"/></g><g transform="translate(-13597 -860)"><rect class="c" width="11" height="11" transform="translate(13717 920)"/></g><g transform="translate(-13717 -840)"><rect class="c" width="11" height="11" transform="translate(13717 920)"/></g><g transform="translate(-13697 -840)"><rect class="c" width="11" height="11" transform="translate(13717 920)"/></g><g transform="translate(-13677 -840)"><rect class="c" width="11" height="11" transform="translate(13717 920)"/></g><g transform="translate(-13657 -840)"><rect class="c" width="11" height="11" transform="translate(13717 920)"/></g><g transform="translate(-13637 -840)"><rect class="c" width="11" height="11" transform="translate(13717 920)"/></g><g transform="translate(-13617 -840)"><rect class="c" width="11" height="11" transform="translate(13717 920)"/></g><g transform="translate(-13597 -840)"><rect class="c" width="11" height="11" transform="translate(13717 920)"/></g><g transform="translate(-13717 -820)"><rect class="c" width="11" height="11" transform="translate(13717 920)"/></g><g transform="translate(-13697 -820)"><rect class="c" width="11" height="11" transform="translate(13717 920)"/></g><g transform="translate(-13677 -820)"><rect class="c" width="11" height="11" transform="translate(13717 920)"/></g><g transform="translate(-13657 -820)"><rect class="c" width="11" height="11" transform="translate(13717 920)"/></g><g transform="translate(-13637 -820)"><rect class="c" width="11" height="11" transform="translate(13717 920)"/></g><g transform="translate(-13617 -820)"><rect class="c" width="11" height="11" transform="translate(13717 920)"/></g><g transform="translate(-13597 -820)"><rect class="c" width="11" height="11" transform="translate(13717 920)"/></g><g transform="translate(-13717 -800)"><rect class="c" width="11" height="11" transform="translate(13717 920)"/></g><g transform="translate(-13697 -800)"><rect class="c" width="11" height="11" transform="translate(13717 920)"/></g><g transform="translate(-13677 -800)"><rect class="c" width="11" height="11" transform="translate(13717 920)"/></g><g transform="translate(-13657 -800)"><rect class="c" width="11" height="11" transform="translate(13717 920)"/></g><g transform="translate(-13637 -800)"><rect class="c" width="11" height="11" transform="translate(13717 920)"/></g><g transform="translate(-13617 -800)"><rect class="c" width="11" height="11" transform="translate(13717 920)"/></g><g transform="translate(-13597 -800)"><rect class="c" width="11" height="11" transform="translate(13717 920)"/></g><g transform="translate(-13717 -780)"><rect class="c" width="11" height="11" transform="translate(13717 920)"/></g><g transform="translate(-13697 -780)"><rect class="c" width="11" height="11" transform="translate(13717 920)"/></g><g transform="translate(-13677 -780)"><rect class="c" width="11" height="11" transform="translate(13717 920)"/></g><g transform="translate(-13657 -780)"><rect class="c" width="11" height="11" transform="translate(13717 920)"/></g><g transform="translate(-13637 -780)"><rect class="c" width="11" height="11" transform="translate(13717 920)"/></g><g transform="translate(-13617 -780)"><rect class="c" width="11" height="11" transform="translate(13717 920)"/></g><g transform="translate(-13597 -780)"><rect class="c" width="11" height="11" transform="translate(13717 920)"/></g></g></svg>